<?xml version="1.0" encoding="utf-8"?>
<!-- Generator: Adobe Illustrator 24.0.3, SVG Export Plug-In . SVG Version: 6.00 Build 0)  -->
<svg version="1.1" id="Calque_1" xmlns="http://www.w3.org/2000/svg" xmlns:xlink="http://www.w3.org/1999/xlink" x="0px" y="0px"
	 viewBox="0 0 346.7 90.6" style="enable-background:new 0 0 346.7 90.6;" xml:space="preserve">
<style type="text/css">
	.st0{fill:#FFFFFF;}
	.st1{fill:#1E1E1E;}
	.st2{fill:#2A2A2B;}
	.st3{fill:#111111;}
	.st4{fill:#FF3B78;}
</style>
<title>Logo Creative</title>
<g>
	<path class="st0" d="M93.8,70.2c-1.5-1.4-2.2-3.2-2.2-5.2c0-2.1,0.7-3.8,2.2-5.3c1.5-1.4,3.2-2.1,5.3-2.1c2.1,0,3.8,0.7,5.3,2.1
		c1.4,1.5,2.1,3.3,2.1,5.3c0,2-0.7,3.8-2.1,5.2c-1.5,1.5-3.3,2.2-5.3,2.2C97,72.5,95.2,71.7,93.8,70.2z"/>
	<path class="st0" d="M104.6,53.3c0-3.6,0.9-6.8,2.7-9.8c1.7-3,4.1-5.3,7.2-7c3.1-1.6,6.5-2.5,10.2-2.5c3.9,0,7.8,1.1,11.1,3.2
		c3.3,2,5.8,5.3,6.8,9.4l-9.8,3c-0.4-1.6-1.4-2.9-2.8-4c-1.5-1.1-3.3-1.6-5.5-1.6c-2.4,0-4.5,0.8-6.2,2.5c-1.7,1.7-2.6,3.9-2.6,6.7
		c0,2.7,0.8,5,2.5,6.7c1.6,1.8,3.7,2.7,6.4,2.7c4.4,0,7.3-2.5,8.4-5.7l9.8,3c-0.7,2.7-2.1,5-4,7c-2,1.9-4.1,3.3-6.6,4.2
		c-2.5,1-5.1,1.4-7.8,1.4C113,72.6,104.3,64.1,104.6,53.3z"/>
	<path class="st0" d="M164.4,45.4c-1-0.1-2.1-0.3-3.4-0.3c-5.3,0-8.7,3.8-8.7,10.4v16.1h-10.6V34.9h10.2v5.3h0.1
		c1.9-4,5.5-5.7,9.5-5.7c1,0,1.9,0.1,2.9,0.4V45.4z"/>
	<path class="st0" d="M169.7,56.3c0.3,2.2,1.3,3.9,3,5.3c1.7,1.3,3.6,2,6,2c1.6,0,3.2-0.5,4.7-1.4c1.5-0.9,2.6-2.1,3.1-3.5l8.9,3
		c-1.2,3.4-3.3,6.1-6.4,8c-3,1.9-6.4,2.9-10.1,2.9c-3.7,0-7-0.8-10.1-2.4c-3-1.6-5.5-3.8-7.3-6.8c-1.8-3-2.7-6.3-2.7-10
		c0-3.5,0.9-6.7,2.7-9.7c1.8-3,4.1-5.3,7.2-7c3-1.7,6.2-2.5,9.7-2.5c5.5,0,9.8,1.7,13.2,5.1c3.4,3.4,5.1,7.8,5.1,13.3
		c0,1.7-0.1,3-0.2,3.8H169.7z M185.8,49.1c-0.1-1.4-0.7-2.8-1.9-4.1c-1.2-1.3-3.4-2.2-5.9-2.2c-2.2,0-4,0.7-5.5,2.1
		c-1.4,1.4-2.3,2.9-2.5,4.3H185.8z"/>
	<path class="st0" d="M197.7,69.4c-2.4-2.1-3.6-4.7-3.6-8v-0.3c0-5.3,3.2-8.3,7.4-9.8c3-1.1,5.7-1.5,8.8-1.5h3.6
		c1.9,0,2.9-1,2.9-2.5c0-2.6-2.1-4.6-5.8-4.6c-3.3,0-5.8,1.9-6.6,5l-9.5-2.1c0.4-2.5,1.5-4.7,3.2-6.4c1.6-1.8,3.6-3.1,6-3.9
		c2.3-0.8,4.7-1.3,7.4-1.3c9.1-0.1,15.8,5.1,15.8,14.9v16.9c0,2.2,0.1,4.2,0.3,5.9h-10c-0.1-1-0.2-2.4-0.2-4.6h-0.1
		c-2.5,3.5-6.1,5.3-10.9,5.3C202.9,72.4,200.1,71.4,197.7,69.4z M214.7,62.4c1.3-1.3,2-3,2-5v-0.9h-6.4c-1.3,0-2.5,0.4-3.6,1.1
		c-1.2,0.7-1.8,1.8-1.8,3.1c0,2.4,2,3.8,4.5,3.8C211.6,64.6,213.4,63.8,214.7,62.4z"/>
	<path class="st0" d="M242.1,44.2v13.9c0,3,1.7,4.7,5.3,4.7c0.8,0,2.1-0.1,3.8-0.3v8.7c-1.8,0.6-3.9,0.9-6.4,0.9
		c-8.9,0-13.3-4.5-13.3-13.5V44.2h-7.1v-9.3h7.3V23.4h10.5v11.5h9.1v9.3H242.1z"/>
	<path class="st0" d="M250,22.1c0-1.8,0.6-3.5,1.9-4.8c1.3-1.3,2.9-1.9,4.7-1.9c1.8,0,3.5,0.7,4.8,1.9c1.3,1.3,1.9,3,1.9,4.8
		c0,1.8-0.7,3.3-1.9,4.7c-1.3,1.3-3,2-4.8,2c-1.8,0-3.3-0.7-4.7-2C250.6,25.4,250,23.9,250,22.1z M262,34.9v36.8h-10.8V34.9H262z"/>
	<path class="st0" d="M274.8,71.7l-14.9-36.8h11.4l9,24.6l9.1-24.6h11.4l-15.1,36.8H274.8z"/>
	<path class="st0" d="M304.1,56.3c0.3,2.2,1.3,3.9,3,5.3c1.7,1.3,3.6,2,6,2c1.6,0,3.2-0.5,4.7-1.4c1.5-0.9,2.6-2.1,3.1-3.5l8.9,3
		c-1.2,3.4-3.3,6.1-6.4,8c-3,1.9-6.4,2.9-10.1,2.9c-3.7,0-7-0.8-10.1-2.4c-3-1.6-5.5-3.8-7.3-6.8c-1.8-3-2.7-6.3-2.7-10
		c0-3.5,0.9-6.7,2.7-9.7c1.8-3,4.1-5.3,7.2-7c3-1.7,6.2-2.5,9.7-2.5c5.5,0,9.8,1.7,13.2,5.1c3.4,3.4,5.1,7.8,5.1,13.3
		c0,1.7-0.1,3-0.2,3.8H304.1z M320.1,49.1c-0.1-1.4-0.7-2.8-1.9-4.1c-1.2-1.3-3.4-2.2-5.9-2.2c-2.2,0-4,0.7-5.5,2.1
		c-1.4,1.4-2.3,2.9-2.5,4.3H320.1z"/>
</g>
<g>
	<polygon class="st1" points="31.5,19.9 53.8,62.2 70.2,29 	"/>
	<polygon class="st2" points="30,20 17.5,55.2 38,57.6 	"/>
	<polygon class="st1" points="38.2,58.5 58.4,75.6 17.6,55.9 	"/>
	<polygon class="st3" points="59.2,74.6 70.9,29.4 54.4,62.8 	"/>
	<polygon class="st4" points="30.6,20.1 52.9,62.1 39,57.8 	"/>
	<polygon class="st1" points="53.7,62.9 40,58.8 58.5,74.8 	"/>
</g>
</svg>
