<svg xmlns="http://www.w3.org/2000/svg" viewBox="0 0 175.69 67.67">
    <defs>
        <style>
            .cls-1{fill:#333;}.cls-1,.cls-2{fill-rule:evenodd;}.cls-2,.cls-6{fill:#3effbf;}.cls-3{fill:#1e1e1e;}.cls-4{fill:#2a2a2b;}.cls-5{fill:#111;}
        </style>
    </defs>
    <g id="Calque_2" data-name="Calque 2">
        <g id="Layer_1" data-name="Layer 1">
            <path class="cls-1"
                  d="M37.71,36a2,2,0,0,0-1-1.76L19.87,24.52a2,2,0,0,0-.93-.27h-.17a2,2,0,0,0-.93.27L1,34.2A2,2,0,0,0,0,36L0,62a1,1,0,0,0,.5.88,1,1,0,0,0,1,0l10-5.73a2,2,0,0,0,1-1.76V43.24a2,2,0,0,1,1-1.76L17.84,39a2,2,0,0,1,2,0l4.25,2.45a2,2,0,0,1,1,1.76V55.42a2,2,0,0,0,1,1.76l10,5.73a1,1,0,0,0,1,0,1,1,0,0,0,.5-.88Z"/>
            <path class="cls-1"
                  d="M118.65.13a1,1,0,0,0-1.51.89V26.83a.72.72,0,0,1-.36.62.75.75,0,0,1-.71,0L111.86,25a2,2,0,0,0-2,0L93,34.73a2,2,0,0,0-1,1.76V55.92a2,2,0,0,0,1,1.76l16.82,9.72a2.06,2.06,0,0,0,2,0l16.83-9.72a2,2,0,0,0,1-1.76V7.49a2,2,0,0,0-1-1.77Zm-1.56,49.41a.51.51,0,0,1-.26.44l-5.78,3.33a.5.5,0,0,1-.5,0L104.77,50a.51.51,0,0,1-.26-.44V42.87a.52.52,0,0,1,.26-.45l5.78-3.33a.5.5,0,0,1,.5,0l5.78,3.33a.52.52,0,0,1,.26.45Z"/>
            <path class="cls-1"
                  d="M174.68,42.69a2,2,0,0,0,1-1.76v-4.7a2,2,0,0,0-1-1.76L158,24.76a2,2,0,0,0-2,0L139.1,34.47a2,2,0,0,0-1,1.76V55.65a2,2,0,0,0,1,1.77l16.72,9.52a2,2,0,0,0,2,0l10.12-5.62a1,1,0,0,0,.52-.88,1,1,0,0,0-.51-.89L151,49.85a1,1,0,0,1-.51-.88V42.88A1,1,0,0,1,151,42l5.27-3a1,1,0,0,1,1,0l5.27,3a1,1,0,0,1,.51.88v4.79a1,1,0,0,0,.51.88,1,1,0,0,0,1,0Z"/>
            <path class="cls-2"
                  d="M156.7,41.78a.39.39,0,0,1,.39,0l3.23,1.86a.39.39,0,0,1,.19.34v3.73a.39.39,0,0,1-.19.34l-3.23,1.86a.39.39,0,0,1-.39,0l-3.23-1.86a.4.4,0,0,1-.2-.34V44a.4.4,0,0,1,.2-.34Z"/>
            <polygon class="cls-3" points="54.86 18.31 73.44 53.56 87.11 25.9 54.86 18.31"/>
            <polygon class="cls-4" points="53.61 18.4 43.19 47.73 60.28 49.73 53.61 18.4"/>
            <polygon class="cls-3" points="60.44 50.48 77.28 64.73 43.28 48.31 60.44 50.48"/>
            <polygon class="cls-5" points="77.94 63.9 87.69 26.23 73.94 54.06 77.94 63.9"/>
            <polygon class="cls-6" points="54.11 18.48 72.69 53.48 61.11 49.9 54.11 18.48"/>
            <polygon class="cls-3" points="73.36 54.15 61.94 50.73 77.36 64.06 73.36 54.15"/>
        </g>
    </g>
</svg>